<?xml version='1.0' encoding='iso-8859-1'?>
<svg version="1.1" xmlns="http://www.w3.org/2000/svg" viewBox="0 0 489.86 489.86" xmlns:xlink="http://www.w3.org/1999/xlink" enable-background="new 0 0 489.86 489.86">
  <g>
    <path d="m487.658,129.18l-49-66.7c-2-2-4.8-3.5-7.6-3.9l-184-57.6c-2.1-1-4.2-1-6.3,0l-183.3,57.8c-1,0.2-5.7,3.6-9,7.5l-46.2,62.9c-2.1,3.1-5.3,10.9 4.2,16.7l41.6,17.1v240.2c0,4.2 2.1,7.3 6.3,9.4l185.4,76c3.8,1.4 5.8,1.4 9.4,0l185.4-76c4.2-1 6.3-5.2 6.3-9.4v-239.8l42.7-17.5c9.1-4.7 6.3-13.6 4.1-16.7zm-460.4,2.1l35.2-48.7 166.3,68.2-35.9,49.3-165.6-68.8zm206.3,332.4l-164.6-67.8v-224.4l122.9,50.5c6.1,1.9 9.8,0.2 12.5-3.1l29.2-39.7v284.5zm11.5-330l-154.7-63.3 153.6-48.5 155.2,48.6-154.1,63.2zm174.9,262.2l-164.6,67.7v-285.9l30.2,41.1c2.1,3.1 6.5,5.1 12.5,3.1l121.9-50-0,224zm-121.9-195.8l-36.5-50 165.6-67.7 36.5,50-165.6,67.7z"/>
  </g>
</svg>
